<svg id="Layer_1" data-name="Layer 1" xmlns="http://www.w3.org/2000/svg" viewBox="0 0 503.61 503.61"><defs><style>.cls-1{fill:#fff;}</style></defs><path class="cls-1" d="M461.64,260c-4.2,0-8.39,4.19-8.39,8.39,0,5,3.35,8.39,8.39,8.39s8.39-3.36,8.39-8.39S466.68,260,461.64,260Z" transform="translate(0 0)"/><path class="cls-1" d="M486.82,234.76c-4.2,0-8.39,4.2-8.39,8.4,0,5,3.35,8.39,8.39,8.39s8.39-3.36,8.39-8.39S491.86,234.76,486.82,234.76Z" transform="translate(0 0)"/><path class="cls-1" d="M436.46,234.76c-4.2,0-8.39,4.2-8.39,8.4,0,5,3.35,8.39,8.39,8.39s8.39-3.36,8.39-8.39S441.5,234.76,436.46,234.76Z" transform="translate(0 0)"/><path class="cls-1" d="M411.28,260c-4.2,0-8.39,4.19-8.39,8.39,0,5,3.35,8.39,8.39,8.39s8.39-3.36,8.39-8.39S416.32,260,411.28,260Z" transform="translate(0 0)"/><path class="cls-1" d="M360.92,260c-4.2,0-8.39,4.19-8.39,8.39,0,5,3.35,8.39,8.39,8.39s8.39-3.36,8.39-8.39S366,260,360.92,260Z" transform="translate(0 0)"/><path class="cls-1" d="M386.1,234.76c-4.2,0-8.39,4.2-8.39,8.4,0,5,3.35,8.39,8.39,8.39s8.39-3.36,8.39-8.39S391.14,234.76,386.1,234.76Z" transform="translate(0 0)"/><path class="cls-1" d="M335.74,234.76c-4.2,0-8.4,4.2-8.4,8.4,0,5,3.36,8.39,8.4,8.39s8.39-3.36,8.39-8.39S340.77,234.76,335.74,234.76Z" transform="translate(0 0)"/><path class="cls-1" d="M310.56,260c-4.2,0-8.4,4.19-8.4,8.39,0,5,3.36,8.39,8.4,8.39s8.39-3.36,8.39-8.39S315.59,260,310.56,260Z" transform="translate(0 0)"/><path class="cls-1" d="M260.2,260c-4.2,0-8.4,4.19-8.4,8.39,0,5,3.36,8.39,8.4,8.39s8.39-3.36,8.39-8.39S265.23,260,260.2,260Z" transform="translate(0 0)"/><path class="cls-1" d="M285.38,234.76c-4.2,0-8.4,4.2-8.4,8.4,0,5,3.36,8.39,8.4,8.39s8.39-3.36,8.39-8.39S290.41,234.76,285.38,234.76Z" transform="translate(0 0)"/><path class="cls-1" d="M461.64,209.58c-4.2,0-8.39,4.2-8.39,8.4,0,5,3.35,8.39,8.39,8.39S470,223,470,218,466.68,209.58,461.64,209.58Z" transform="translate(0 0)"/><path class="cls-1" d="M461.64,159.22c-4.2,0-8.39,4.2-8.39,8.4,0,5,3.35,8.39,8.39,8.39s8.39-3.36,8.39-8.39S466.68,159.22,461.64,159.22Z" transform="translate(0 0)"/><path class="cls-1" d="M486.82,184.4c-4.2,0-8.39,4.2-8.39,8.4,0,5,3.35,8.39,8.39,8.39s8.39-3.36,8.39-8.39S491.86,184.4,486.82,184.4Z" transform="translate(0 0)"/><path class="cls-1" d="M436.46,184.4c-4.2,0-8.39,4.2-8.39,8.4,0,5,3.35,8.39,8.39,8.39s8.39-3.36,8.39-8.39S441.5,184.4,436.46,184.4Z" transform="translate(0 0)"/><path class="cls-1" d="M411.28,209.58c-4.2,0-8.39,4.2-8.39,8.4,0,5,3.35,8.39,8.39,8.39s8.39-3.36,8.39-8.39S416.32,209.58,411.28,209.58Z" transform="translate(0 0)"/><path class="cls-1" d="M360.92,209.58c-4.2,0-8.39,4.2-8.39,8.4,0,5,3.35,8.39,8.39,8.39s8.39-3.36,8.39-8.39S366,209.58,360.92,209.58Z" transform="translate(0 0)"/><path class="cls-1" d="M411.28,159.22c-4.2,0-8.39,4.2-8.39,8.4,0,5,3.35,8.39,8.39,8.39s8.39-3.36,8.39-8.39S416.32,159.22,411.28,159.22Z" transform="translate(0 0)"/><path class="cls-1" d="M360.92,159.22c-4.2,0-8.39,4.2-8.39,8.4,0,5,3.35,8.39,8.39,8.39s8.39-3.36,8.39-8.39S366,159.22,360.92,159.22Z" transform="translate(0 0)"/><path class="cls-1" d="M386.1,184.4c-4.2,0-8.39,4.2-8.39,8.4,0,5,3.35,8.39,8.39,8.39s8.39-3.36,8.39-8.39S391.14,184.4,386.1,184.4Z" transform="translate(0 0)"/><path class="cls-1" d="M335.74,184.4c-4.2,0-8.4,4.2-8.4,8.4,0,5,3.36,8.39,8.4,8.39s8.39-3.36,8.39-8.39S340.77,184.4,335.74,184.4Z" transform="translate(0 0)"/><path class="cls-1" d="M310.56,209.58c-4.2,0-8.4,4.2-8.4,8.4,0,5,3.36,8.39,8.4,8.39S319,223,319,218,315.59,209.58,310.56,209.58Z" transform="translate(0 0)"/><path class="cls-1" d="M260.2,209.58c-4.2,0-8.4,4.2-8.4,8.4,0,5,3.36,8.39,8.4,8.39s8.39-3.36,8.39-8.39S265.23,209.58,260.2,209.58Z" transform="translate(0 0)"/><path class="cls-1" d="M310.56,159.22c-4.2,0-8.4,4.2-8.4,8.4,0,5,3.36,8.39,8.4,8.39s8.39-3.36,8.39-8.39S315.59,159.22,310.56,159.22Z" transform="translate(0 0)"/><path class="cls-1" d="M260.2,159.22c-4.2,0-8.4,4.2-8.4,8.4,0,5,3.36,8.39,8.4,8.39s8.39-3.36,8.39-8.39S265.23,159.22,260.2,159.22Z" transform="translate(0 0)"/><path class="cls-1" d="M285.38,184.4c-4.2,0-8.4,4.2-8.4,8.4,0,5,3.36,8.39,8.4,8.39s8.39-3.36,8.39-8.39S290.41,184.4,285.38,184.4Z" transform="translate(0 0)"/><path class="cls-1" d="M461.64,108.86c-4.2,0-8.39,4.2-8.39,8.4,0,5,3.35,8.39,8.39,8.39s8.39-3.36,8.39-8.39S466.68,108.86,461.64,108.86Z" transform="translate(0 0)"/><path class="cls-1" d="M486.82,134c-4.2,0-8.39,4.2-8.39,8.4,0,5,3.35,8.39,8.39,8.39s8.39-3.36,8.39-8.39S491.86,134,486.82,134Z" transform="translate(0 0)"/><path class="cls-1" d="M436.46,134c-4.2,0-8.39,4.2-8.39,8.4,0,5,3.35,8.39,8.39,8.39s8.39-3.36,8.39-8.39S441.5,134,436.46,134Z" transform="translate(0 0)"/><path class="cls-1" d="M486.82,83.68c-4.2,0-8.39,4.2-8.39,8.4,0,5,3.35,8.39,8.39,8.39s8.39-3.36,8.39-8.39S491.86,83.68,486.82,83.68Z" transform="translate(0 0)"/><path class="cls-1" d="M436.46,83.68c-4.2,0-8.39,4.2-8.39,8.4,0,5,3.35,8.39,8.39,8.39s8.39-3.36,8.39-8.39S441.5,83.68,436.46,83.68Z" transform="translate(0 0)"/><path class="cls-1" d="M411.28,108.86c-4.2,0-8.39,4.2-8.39,8.4,0,5,3.35,8.39,8.39,8.39s8.39-3.36,8.39-8.39S416.32,108.86,411.28,108.86Z" transform="translate(0 0)"/><path class="cls-1" d="M360.92,108.86c-4.2,0-8.39,4.2-8.39,8.4,0,5,3.35,8.39,8.39,8.39s8.39-3.36,8.39-8.39S366,108.86,360.92,108.86Z" transform="translate(0 0)"/><path class="cls-1" d="M386.1,134c-4.2,0-8.39,4.2-8.39,8.4,0,5,3.35,8.39,8.39,8.39s8.39-3.36,8.39-8.39S391.14,134,386.1,134Z" transform="translate(0 0)"/><path class="cls-1" d="M335.74,134c-4.2,0-8.4,4.2-8.4,8.4,0,5,3.36,8.39,8.4,8.39s8.39-3.36,8.39-8.39S340.77,134,335.74,134Z" transform="translate(0 0)"/><path class="cls-1" d="M386.1,83.68c-4.2,0-8.39,4.2-8.39,8.4,0,5,3.35,8.39,8.39,8.39s8.39-3.36,8.39-8.39S391.14,83.68,386.1,83.68Z" transform="translate(0 0)"/><path class="cls-1" d="M335.74,83.68c-4.2,0-8.4,4.2-8.4,8.4,0,5,3.36,8.39,8.4,8.39s8.39-3.36,8.39-8.39S340.77,83.68,335.74,83.68Z" transform="translate(0 0)"/><path class="cls-1" d="M310.56,108.86c-4.2,0-8.4,4.2-8.4,8.4,0,5,3.36,8.39,8.4,8.39s8.39-3.36,8.39-8.39S315.59,108.86,310.56,108.86Z" transform="translate(0 0)"/><path class="cls-1" d="M260.2,108.86c-4.2,0-8.4,4.2-8.4,8.4,0,5,3.36,8.39,8.4,8.39s8.39-3.36,8.39-8.39S265.23,108.86,260.2,108.86Z" transform="translate(0 0)"/><path class="cls-1" d="M285.38,134c-4.2,0-8.4,4.2-8.4,8.4,0,5,3.36,8.39,8.4,8.39s8.39-3.36,8.39-8.39S290.41,134,285.38,134Z" transform="translate(0 0)"/><path class="cls-1" d="M285.38,83.68c-4.2,0-8.4,4.2-8.4,8.4,0,5,3.36,8.39,8.4,8.39s8.39-3.36,8.39-8.39S290.41,83.68,285.38,83.68Z" transform="translate(0 0)"/><path class="cls-1" d="M461.64,58.5c-4.2,0-8.39,4.2-8.39,8.4,0,5,3.35,8.39,8.39,8.39S470,71.93,470,66.9,466.68,58.5,461.64,58.5Z" transform="translate(0 0)"/><path class="cls-1" d="M461.64,8.14c-4.2,0-8.39,4.2-8.39,8.39,0,5,3.35,8.4,8.39,8.4s8.39-3.36,8.39-8.4S466.68,8.14,461.64,8.14Z" transform="translate(0 0)"/><path class="cls-1" d="M486.82,33.32c-4.2,0-8.39,4.2-8.39,8.39,0,5,3.35,8.4,8.39,8.4s8.39-3.36,8.39-8.4S491.86,33.32,486.82,33.32Z" transform="translate(0 0)"/><path class="cls-1" d="M436.46,33.32c-4.2,0-8.39,4.2-8.39,8.39,0,5,3.35,8.4,8.39,8.4s8.39-3.36,8.39-8.4S441.5,33.32,436.46,33.32Z" transform="translate(0 0)"/><path class="cls-1" d="M411.28,58.5c-4.2,0-8.39,4.2-8.39,8.4,0,5,3.35,8.39,8.39,8.39s8.39-3.36,8.39-8.39S416.32,58.5,411.28,58.5Z" transform="translate(0 0)"/><path class="cls-1" d="M360.92,58.5c-4.2,0-8.39,4.2-8.39,8.4,0,5,3.35,8.39,8.39,8.39s8.39-3.36,8.39-8.39S366,58.5,360.92,58.5Z" transform="translate(0 0)"/><path class="cls-1" d="M411.28,8.14c-4.2,0-8.39,4.2-8.39,8.39,0,5,3.35,8.4,8.39,8.4s8.39-3.36,8.39-8.4S416.32,8.14,411.28,8.14Z" transform="translate(0 0)"/><path class="cls-1" d="M360.92,8.14c-4.2,0-8.39,4.2-8.39,8.39,0,5,3.35,8.4,8.39,8.4s8.39-3.36,8.39-8.4S366,8.14,360.92,8.14Z" transform="translate(0 0)"/><path class="cls-1" d="M386.1,33.32c-4.2,0-8.39,4.2-8.39,8.39,0,5,3.35,8.4,8.39,8.4s8.39-3.36,8.39-8.4S391.14,33.32,386.1,33.32Z" transform="translate(0 0)"/><path class="cls-1" d="M335.74,33.32c-4.2,0-8.4,4.2-8.4,8.39,0,5,3.36,8.4,8.4,8.4s8.39-3.36,8.39-8.4S340.77,33.32,335.74,33.32Z" transform="translate(0 0)"/><path class="cls-1" d="M310.56,58.5c-4.2,0-8.4,4.2-8.4,8.4,0,5,3.36,8.39,8.4,8.39S319,71.93,319,66.9,315.59,58.5,310.56,58.5Z" transform="translate(0 0)"/><path class="cls-1" d="M260.2,58.5c-4.2,0-8.4,4.2-8.4,8.4,0,5,3.36,8.39,8.4,8.39s8.39-3.36,8.39-8.39S265.23,58.5,260.2,58.5Z" transform="translate(0 0)"/><path class="cls-1" d="M310.56,8.14c-4.2,0-8.4,4.2-8.4,8.39,0,5,3.36,8.4,8.4,8.4s8.39-3.36,8.39-8.4S315.59,8.14,310.56,8.14Z" transform="translate(0 0)"/><path class="cls-1" d="M260.2,8.14c-4.2,0-8.4,4.2-8.4,8.39,0,5,3.36,8.4,8.4,8.4s8.39-3.36,8.39-8.4S265.23,8.14,260.2,8.14Z" transform="translate(0 0)"/><path class="cls-1" d="M285.38,33.32c-4.2,0-8.4,4.2-8.4,8.39,0,5,3.36,8.4,8.4,8.4s8.39-3.36,8.39-8.4S290.41,33.32,285.38,33.32Z" transform="translate(0 0)"/><path class="cls-1" d="M503.61,8.39c0-5-3.36-8.39-8.4-8.39H8.39C3.36,0,0,3.36,0,8.39V495.21c0,5,3.36,8.4,8.39,8.4H251.8c5,0,8.4-3.36,8.4-8.4V394.49H461.64c23.5,0,42-26,42-58.75h0V8.39ZM260.2,16.79H486.82V288.5a41.2,41.2,0,0,0-7.4-6.12c-.39-.25-.77-.5-1.16-.73l-.74-.41c-.33-.18-.65-.37-1-.54l-.94-.47-.74-.35-1.15-.49-.46-.18a32.62,32.62,0,0,0-6.05-1.72l-.62-.11-1.12-.15-1-.11-.85-.07c-.65,0-1.3-.07-1.95-.07H260.2Zm-42,360.91c-8,0-15.36-6.8-20-17.08a60.74,60.74,0,0,1-5.14-24.88,64.16,64.16,0,0,1,1.58-14.23c3.64-16,13.11-27.74,23.6-27.74H432.08c-7.69,10.62-12.41,25.44-12.41,42s4.72,31.34,12.41,42Zm25.18,109.12H16.79v-470H243.41V277H218.23c-23.5,0-42,26-42,58.76s18.47,58.75,42,58.75h25.18v92.33ZM461.64,377.7c-8,0-15.35-6.8-20-17.08a60.74,60.74,0,0,1-5.14-24.88A64.16,64.16,0,0,1,438,321.51c3.64-15.95,13.1-27.72,23.58-27.74h0c9.09,0,17.4,8.85,21.83,21.59a62.33,62.33,0,0,1,3.35,20.38C486.82,358.4,475.07,377.7,461.64,377.7Z" transform="translate(0 0)"/></svg>