<svg id="圖層_1" data-name="圖層 1" xmlns="http://www.w3.org/2000/svg" viewBox="0 0 512 471.94"><defs><style>.cls-1{fill:#fff;}</style></defs><path class="cls-1" d="M67.18,68.39h-.1a10,10,0,0,0,0,20h.1a10,10,0,0,0,0-20Z" transform="translate(0 -20.5)"/><path class="cls-1" d="M116.71,68.39h-.1a10,10,0,0,0,0,20h.1a10,10,0,0,0,0-20Z" transform="translate(0 -20.5)"/><path class="cls-1" d="M166.24,68.39h-.1a10,10,0,0,0,0,20h.1a10,10,0,0,0,0-20Z" transform="translate(0 -20.5)"/><path class="cls-1" d="M444.31,68.39H251.38a10,10,0,0,0,0,20H444.31a10,10,0,1,0,0-20Z" transform="translate(0 -20.5)"/><path class="cls-1" d="M262.89,472.44a10,10,0,1,0,7.07,2.93A10.09,10.09,0,0,0,262.89,472.44Z" transform="translate(0 -20.5)"/><path class="cls-1" d="M480.23,20.5H31.77A31.8,31.8,0,0,0,0,52.27v408.4a31.8,31.8,0,0,0,31.77,31.77H221a10,10,0,1,0,0-20H31.77A11.78,11.78,0,0,1,20,460.67V136.29H492V460.67a11.78,11.78,0,0,1-11.77,11.77H303.67a10,10,0,0,0,0,20H480.23A31.8,31.8,0,0,0,512,460.67V52.27A31.8,31.8,0,0,0,480.23,20.5ZM20,116.29v-64A11.78,11.78,0,0,1,31.77,40.5H480.23A11.78,11.78,0,0,1,492,52.27v64Z" transform="translate(0 -20.5)"/><path class="cls-1" d="M178,250.5a36,36,0,0,0-36-36H108.37a10,10,0,0,0-10,10v104a10,10,0,0,0,10,10H142a36,36,0,0,0,24.86-62A35.89,35.89,0,0,0,178,250.5Zm-20,52a16,16,0,0,1-16,16H118.37v-32H142A16,16,0,0,1,158,302.5Zm-39.67-36v-32H142a16,16,0,0,1,0,32Z" transform="translate(0 -20.5)"/><path class="cls-1" d="M206.65,214.5a10,10,0,0,0-10,10v80.87a33.16,33.16,0,0,0,33.13,33.13,10,10,0,0,0,0-20,13.14,13.14,0,0,1-13.13-13.13V224.5A10,10,0,0,0,206.65,214.5Z" transform="translate(0 -20.5)"/><path class="cls-1" d="M324.87,302.29a36.21,36.21,0,1,0-36.21,36.21A36.25,36.25,0,0,0,324.87,302.29Zm-52.42,0a16.21,16.21,0,1,1,16.21,16.21A16.23,16.23,0,0,1,272.45,302.29Z" transform="translate(0 -20.5)"/><path class="cls-1" d="M377.41,366.5a16.23,16.23,0,0,1-16.21-16.21,10,10,0,0,0-20,0,36.22,36.22,0,0,0,72.43,0v-48a36.26,36.26,0,1,0-20,32.36v15.64A16.23,16.23,0,0,1,377.41,366.5Zm0-48a16.22,16.22,0,1,1,16.22-16.21A16.23,16.23,0,0,1,377.41,318.5Z" transform="translate(0 -20.5)"/><path class="cls-1" d="M108.37,436.5H403.63a10,10,0,0,0,0-20H108.37a10,10,0,0,0,0,20Z" transform="translate(0 -20.5)"/></svg>