<svg id="Layer_3" data-name="Layer 3" xmlns="http://www.w3.org/2000/svg" viewBox="0 0 496 496"><defs><style>.cls-1{fill:#fff;}</style></defs><path class="cls-1" d="M504,176a8,8,0,0,0-2.34-5.66l-160-160A8,8,0,0,0,336,8C245.94,8,172.41,79.3,168.38,168.38,79.3,172.41,8,245.94,8,336c0,92.64,75.37,168,168,168,90.06,0,163.59-71.3,167.62-160.38C432.7,339.59,504,266.06,504,176Zm-48.15,2.94C454.26,243.74,401.18,296,336,296A120.13,120.13,0,0,1,216,176c0-65.18,52.25-118.26,117.05-119.85a168.27,168.27,0,0,0,122.8,122.79Zm-110.23-142L475.08,166.38A152.07,152.07,0,0,1,345.62,36.93Zm-49.77,302C294.26,403.74,241.18,456,176,456A120.13,120.13,0,0,1,56,336c0-65.18,52.25-118.26,117.05-119.85a168.27,168.27,0,0,0,122.8,122.79ZM176,488C92.18,488,24,419.82,24,336c0-81.26,64.14-147.63,144.42-151.62q.41,8.09,1.54,15.92C97.78,203.5,40,263.05,40,336c0,75,61,136,136,136,72.95,0,132.5-57.78,135.7-130,5.24.77,10.54,1.27,15.92,1.54C323.63,423.86,257.26,488,176,488ZM336,328c-83.82,0-152-68.18-152-152,0-81.26,64.14-147.68,144.42-151.66q.4,8.1,1.55,16C257.78,43.5,200,103.05,200,176c0,75,61,136,136,136,72.95,0,132.5-57.78,135.7-130,5.24.77,10.56,1.27,16,1.54C483.68,263.86,417.26,328,336,328Z" transform="translate(-8 -8)"/><path class="cls-1" d="M301.66,178.34a8,8,0,0,0-11.32,0l-40,40A8,8,0,0,0,256,232H416a8,8,0,0,0,5.66-13.66l-64-64a8,8,0,0,0-11.32,0L312,188.69Zm50.34-7L396.69,216H339.31l-16-16ZM275.31,216,296,195.31,316.69,216Z" transform="translate(-8 -8)"/><path class="cls-1" d="M288,168a24,24,0,1,0-24-24A24,24,0,0,0,288,168Zm0-32a8,8,0,1,1-8,8A8,8,0,0,1,288,136Z" transform="translate(-8 -8)"/><path class="cls-1" d="M141.66,338.34a8,8,0,0,0-11.32,0l-40,40A8,8,0,0,0,96,392H256a8,8,0,0,0,5.66-13.66l-64-64a8,8,0,0,0-11.32,0L152,348.69Zm50.34-7L236.69,376H179.31l-16-16ZM115.31,376,136,355.31,156.69,376Z" transform="translate(-8 -8)"/><path class="cls-1" d="M128,328a24,24,0,1,0-24-24A24,24,0,0,0,128,328Zm0-32a8,8,0,1,1-8,8A8,8,0,0,1,128,296Z" transform="translate(-8 -8)"/></svg>